<svg width="25" height="24" viewBox="0 0 25 24" fill="none" xmlns="http://www.w3.org/2000/svg">
<path d="M21.75 5C21.8997 5 22.0397 5.02983 22.1699 5.08949C22.3001 5.14915 22.4173 5.22869 22.5215 5.32812C22.6257 5.42756 22.7038 5.54356 22.7559 5.67614C22.8079 5.80871 22.8372 5.95455 22.8438 6.11364V17.8864C22.8438 18.0388 22.8145 18.1813 22.7559 18.3139C22.6973 18.4465 22.6191 18.5658 22.5215 18.6719C22.4238 18.7779 22.3099 18.8575 22.1797 18.9105C22.0495 18.9635 21.9062 18.9934 21.75 19H3.9375C3.78776 19 3.64779 18.9702 3.51758 18.9105C3.38737 18.8509 3.27018 18.7713 3.16602 18.6719C3.06185 18.5724 2.98372 18.4564 2.93164 18.3239C2.87956 18.1913 2.85026 18.0455 2.84375 17.8864V6.11364C2.84375 5.96117 2.87305 5.81866 2.93164 5.68608C2.99023 5.5535 3.06836 5.43419 3.16602 5.32812C3.26367 5.22206 3.3776 5.14252 3.50781 5.08949C3.63802 5.03646 3.78125 5.00663 3.9375 5H21.75ZM21.8438 6H8.84375V8.56392C9.05859 8.491 9.26693 8.45455 9.46875 8.45455C9.72917 8.45455 9.97331 8.50426 10.2012 8.60369C10.429 8.70312 10.6276 8.83902 10.7969 9.01136C10.9661 9.18371 11.0996 9.38589 11.1973 9.6179C11.2949 9.84991 11.3438 10.0985 11.3438 10.3636C11.3438 10.5691 11.3079 10.7812 11.2363 11H21.8438V6ZM6.59375 10.3636C6.59375 10.536 6.6556 10.6851 6.7793 10.8111C6.90299 10.937 7.04948 11 7.21875 11H7.84375V10.3636C7.84375 10.1913 7.7819 10.0421 7.6582 9.91619C7.53451 9.79025 7.38802 9.72727 7.21875 9.72727C7.04948 9.72727 6.90299 9.79025 6.7793 9.91619C6.6556 10.0421 6.59375 10.1913 6.59375 10.3636ZM9.46875 11C9.63802 11 9.78451 10.937 9.9082 10.8111C10.0319 10.6851 10.0938 10.536 10.0938 10.3636C10.0938 10.1913 10.0319 10.0421 9.9082 9.91619C9.78451 9.79025 9.63802 9.72727 9.46875 9.72727C9.29948 9.72727 9.15299 9.79025 9.0293 9.91619C8.9056 10.0421 8.84375 10.1913 8.84375 10.3636V11H9.46875ZM3.84375 6V11H5.45117C5.37956 10.7812 5.34375 10.5691 5.34375 10.3636C5.34375 10.0985 5.39258 9.84991 5.49023 9.6179C5.58789 9.38589 5.72135 9.18371 5.89062 9.01136C6.0599 8.83902 6.25846 8.70312 6.48633 8.60369C6.71419 8.50426 6.95833 8.45455 7.21875 8.45455C7.42057 8.45455 7.62891 8.491 7.84375 8.56392V6H3.84375ZM3.84375 18H7.84375V12.9048L6.4082 14.3565L5.5293 13.4616L6.95508 12H3.84375V18ZM21.8438 18V12H9.73242L11.1582 13.4616L10.2793 14.3565L8.84375 12.9048V18H21.8438Z" fill="white"/>
</svg>
