<svg width="19" height="18" viewBox="0 0 19 18" fill="none" xmlns="http://www.w3.org/2000/svg">
<path d="M2.84375 2H6.84375V6H2.84375V2Z" fill="white"/>
<path fill-rule="evenodd" clip-rule="evenodd" d="M0.84375 8H8.84375V0H0.84375V8ZM7.84375 7V1H1.84375V7H7.84375Z" fill="white"/>
<path d="M12.8438 2H16.8438V6H12.8438V2Z" fill="white"/>
<path fill-rule="evenodd" clip-rule="evenodd" d="M10.8438 8H18.8438V0H10.8438V8ZM17.8438 7V1H11.8438V7H17.8438Z" fill="white"/>
<path d="M6.84375 12H2.84375V16H6.84375V12Z" fill="white"/>
<path fill-rule="evenodd" clip-rule="evenodd" d="M0.84375 10H8.84375V18H0.84375V10ZM7.84375 11V17H1.84375V11H7.84375Z" fill="white"/>
<path d="M16.8438 15H15.8438V16H16.8438V15Z" fill="white"/>
<path fill-rule="evenodd" clip-rule="evenodd" d="M18.8438 10H16.8438V11H17.8438V12H15.8438V13H14.8438V14H12.8438V15H11.8438V13H13.8438V11H12.8438V10H10.8438V12H11.8438V13H10.8438V15H11.8438V16H12.8438V17H10.8438V18H12.8438V17H14.8438V18H17.8438V17H18.8438V14H17.8438V12H18.8438V10ZM17.8438 14V17H14.8438V16H12.8438V15H14.8438V14H15.8438V13H16.8438V14H17.8438ZM11.8438 12H12.8438V11H11.8438V12Z" fill="white"/>
<path d="M15.8438 10H14.8438V11H15.8438V10Z" fill="white"/>
</svg>
